<?xml version="1.0" encoding="utf-8" standalone="no"?>
<!DOCTYPE svg PUBLIC "-//W3C//DTD SVG 1.1//EN"
  "http://www.w3.org/Graphics/SVG/1.1/DTD/svg11.dtd">
<svg xmlns:xlink="http://www.w3.org/1999/xlink" width="536.559062pt" height="290.689687pt" viewBox="0 0 536.559062 290.689687" xmlns="http://www.w3.org/2000/svg" version="1.1">
 <metadata>
  <rdf:RDF xmlns:dc="http://purl.org/dc/elements/1.1/" xmlns:cc="http://creativecommons.org/ns#" xmlns:rdf="http://www.w3.org/1999/02/22-rdf-syntax-ns#">
   <cc:Work>
    <dc:type rdf:resource="http://purl.org/dc/dcmitype/StillImage"/>
    <dc:date>2026-05-21T02:14:08.279504</dc:date>
    <dc:format>image/svg+xml</dc:format>
    <dc:creator>
     <cc:Agent>
      <dc:title>Matplotlib v3.10.8, https://matplotlib.org/</dc:title>
     </cc:Agent>
    </dc:creator>
   </cc:Work>
  </rdf:RDF>
 </metadata>
 <defs>
  <style type="text/css">*{stroke-linejoin: round; stroke-linecap: butt}</style>
 </defs>
 <g id="figure_1">
  <g id="patch_1">
   <path d="M 0 290.689687 
L 536.559062 290.689687 
L 536.559062 0 
L 0 0 
z
" style="fill: #ffffff"/>
  </g>
  <g id="axes_1">
   <g id="patch_2">
    <path d="M 40.789062 198.062228 
L 529.359063 198.062228 
L 529.359063 27.219687 
L 40.789062 27.219687 
z
" style="fill: #ffffff"/>
   </g>
   <g id="matplotlib.axis_1">
    <g id="xtick_1">
     <g id="line2d_1">
      <defs>
       <path id="m7bc0bcf623" d="M 0 0 
L 0 3.5 
" style="stroke: #000000; stroke-width: 0.75"/>
      </defs>
      <g>
       <use xlink:href="#m7bc0bcf623" x="60.07472" y="198.062228" style="stroke: #000000; stroke-width: 0.75"/>
      </g>
     </g>
     <g id="text_1">
      <text style="font-size: 9.5px; font-family: 'Nimbus Sans', 'Liberation Sans', 'DejaVu Sans', sans-serif" transform="translate(25.670192 230.326104) rotate(-30)">Amikacin</text>
     </g>
    </g>
    <g id="xtick_2">
     <g id="line2d_2">
      <g>
       <use xlink:href="#m7bc0bcf623" x="92.217484" y="198.062228" style="stroke: #000000; stroke-width: 0.75"/>
      </g>
     </g>
     <g id="text_2">
      <text style="font-size: 9.5px; font-family: 'Nimbus Sans', 'Liberation Sans', 'DejaVu Sans', sans-serif" transform="translate(48.197367 235.877667) rotate(-30)">Bedaquiline</text>
     </g>
    </g>
    <g id="xtick_3">
     <g id="line2d_3">
      <g>
       <use xlink:href="#m7bc0bcf623" x="124.360247" y="198.062228" style="stroke: #000000; stroke-width: 0.75"/>
      </g>
     </g>
     <g id="text_3">
      <text style="font-size: 9.5px; font-family: 'Nimbus Sans', 'Liberation Sans', 'DejaVu Sans', sans-serif" transform="translate(74.869015 239.134115) rotate(-30)">Capreomycin</text>
     </g>
    </g>
    <g id="xtick_4">
     <g id="line2d_4">
      <g>
       <use xlink:href="#m7bc0bcf623" x="156.50301" y="198.062228" style="stroke: #000000; stroke-width: 0.75"/>
      </g>
     </g>
     <g id="text_4">
      <text style="font-size: 9.5px; font-family: 'Nimbus Sans', 'Liberation Sans', 'DejaVu Sans', sans-serif" transform="translate(112.498319 235.868761) rotate(-30)">Clofazimine</text>
     </g>
    </g>
    <g id="xtick_5">
     <g id="line2d_5">
      <g>
       <use xlink:href="#m7bc0bcf623" x="188.645773" y="198.062228" style="stroke: #000000; stroke-width: 0.75"/>
      </g>
     </g>
     <g id="text_5">
      <text style="font-size: 9.5px; font-family: 'Nimbus Sans', 'Liberation Sans', 'DejaVu Sans', sans-serif" transform="translate(148.294492 233.759464) rotate(-30)">Delamanid</text>
     </g>
    </g>
    <g id="xtick_6">
     <g id="line2d_6">
      <g>
       <use xlink:href="#m7bc0bcf623" x="220.788536" y="198.062228" style="stroke: #000000; stroke-width: 0.75"/>
      </g>
     </g>
     <g id="text_6">
      <text style="font-size: 9.5px; font-family: 'Nimbus Sans', 'Liberation Sans', 'DejaVu Sans', sans-serif" transform="translate(178.142626 235.084268) rotate(-30)">Ethambutol</text>
     </g>
    </g>
    <g id="xtick_7">
     <g id="line2d_7">
      <g>
       <use xlink:href="#m7bc0bcf623" x="252.931299" y="198.062228" style="stroke: #000000; stroke-width: 0.75"/>
      </g>
     </g>
     <g id="text_7">
      <text style="font-size: 9.5px; font-family: 'Nimbus Sans', 'Liberation Sans', 'DejaVu Sans', sans-serif" transform="translate(206.171769 237.459268) rotate(-30)">Ethionamide</text>
     </g>
    </g>
    <g id="xtick_8">
     <g id="line2d_8">
      <g>
       <use xlink:href="#m7bc0bcf623" x="285.074063" y="198.062228" style="stroke: #000000; stroke-width: 0.75"/>
      </g>
     </g>
     <g id="text_8">
      <text style="font-size: 9.5px; font-family: 'Nimbus Sans', 'Liberation Sans', 'DejaVu Sans', sans-serif" transform="translate(251.575816 229.802862) rotate(-30)">Isoniazid</text>
     </g>
    </g>
    <g id="xtick_9">
     <g id="line2d_9">
      <g>
       <use xlink:href="#m7bc0bcf623" x="317.216826" y="198.062228" style="stroke: #000000; stroke-width: 0.75"/>
      </g>
     </g>
     <g id="text_9">
      <text style="font-size: 9.5px; font-family: 'Nimbus Sans', 'Liberation Sans', 'DejaVu Sans', sans-serif" transform="translate(275.491338 234.552862) rotate(-30)">Kanamycin</text>
     </g>
    </g>
    <g id="xtick_10">
     <g id="line2d_10">
      <g>
       <use xlink:href="#m7bc0bcf623" x="349.359589" y="198.062228" style="stroke: #000000; stroke-width: 0.75"/>
      </g>
     </g>
     <g id="text_10">
      <text style="font-size: 9.5px; font-family: 'Nimbus Sans', 'Liberation Sans', 'DejaVu Sans', sans-serif" transform="translate(302.600058 237.459268) rotate(-30)">Levofloxacin</text>
     </g>
    </g>
    <g id="xtick_11">
     <g id="line2d_11">
      <g>
       <use xlink:href="#m7bc0bcf623" x="381.502352" y="198.062228" style="stroke: #000000; stroke-width: 0.75"/>
      </g>
     </g>
     <g id="text_11">
      <text style="font-size: 9.5px; font-family: 'Nimbus Sans', 'Liberation Sans', 'DejaVu Sans', sans-serif" transform="translate(348.004106 229.802862) rotate(-30)">Linezolid</text>
     </g>
    </g>
    <g id="xtick_12">
     <g id="line2d_12">
      <g>
       <use xlink:href="#m7bc0bcf623" x="413.645115" y="198.062228" style="stroke: #000000; stroke-width: 0.75"/>
      </g>
     </g>
     <g id="text_12">
      <text style="font-size: 9.5px; font-family: 'Nimbus Sans', 'Liberation Sans', 'DejaVu Sans', sans-serif" transform="translate(367.353509 237.189112) rotate(-30)">Moxifloxacin</text>
     </g>
    </g>
    <g id="xtick_13">
     <g id="line2d_13">
      <g>
       <use xlink:href="#m7bc0bcf623" x="445.787878" y="198.062228" style="stroke: #000000; stroke-width: 0.75"/>
      </g>
     </g>
     <g id="text_13">
      <text style="font-size: 9.5px; font-family: 'Nimbus Sans', 'Liberation Sans', 'DejaVu Sans', sans-serif" transform="translate(394.92244 239.829815) rotate(-30)">Pyrazinamide</text>
     </g>
    </g>
    <g id="xtick_14">
     <g id="line2d_14">
      <g>
       <use xlink:href="#m7bc0bcf623" x="477.930641" y="198.062228" style="stroke: #000000; stroke-width: 0.75"/>
      </g>
     </g>
     <g id="text_14">
      <text style="font-size: 9.5px; font-family: 'Nimbus Sans', 'Liberation Sans', 'DejaVu Sans', sans-serif" transform="translate(438.499783 233.252482) rotate(-30)">Rifampicin</text>
     </g>
    </g>
    <g id="xtick_15">
     <g id="line2d_15">
      <g>
       <use xlink:href="#m7bc0bcf623" x="510.073405" y="198.062228" style="stroke: #000000; stroke-width: 0.75"/>
      </g>
     </g>
     <g id="text_15">
      <text style="font-size: 9.5px; font-family: 'Nimbus Sans', 'Liberation Sans', 'DejaVu Sans', sans-serif" transform="translate(461.034671 238.872865) rotate(-30)">Streptomycin</text>
     </g>
    </g>
   </g>
   <g id="matplotlib.axis_2">
    <g id="ytick_1">
     <g id="line2d_16">
      <path d="M 40.789062 198.062228 
L 529.359063 198.062228 
" clip-path="url(#p6a8b51799f)" style="fill: none; stroke-dasharray: 2.22,0.96; stroke-dashoffset: 0; stroke: #ebebeb; stroke-width: 0.6"/>
     </g>
     <g id="line2d_17">
      <defs>
       <path id="mfb492e45cd" d="M 0 0 
L -3.5 0 
" style="stroke: #000000; stroke-width: 0.75"/>
      </defs>
      <g>
       <use xlink:href="#mfb492e45cd" x="40.789062" y="198.062228" style="stroke: #000000; stroke-width: 0.75"/>
      </g>
     </g>
     <g id="text_16">
      <text style="font-size: 8px; font-family: 'Nimbus Sans', 'Liberation Sans', 'DejaVu Sans', sans-serif; text-anchor: end" x="33.789062" y="200.978478" transform="rotate(-0 33.789062 200.978478)">0.0</text>
     </g>
    </g>
    <g id="ytick_2">
     <g id="line2d_18">
      <path d="M 40.789062 165.520792 
L 529.359063 165.520792 
" clip-path="url(#p6a8b51799f)" style="fill: none; stroke-dasharray: 2.22,0.96; stroke-dashoffset: 0; stroke: #ebebeb; stroke-width: 0.6"/>
     </g>
     <g id="line2d_19">
      <g>
       <use xlink:href="#mfb492e45cd" x="40.789062" y="165.520792" style="stroke: #000000; stroke-width: 0.75"/>
      </g>
     </g>
     <g id="text_17">
      <text style="font-size: 8px; font-family: 'Nimbus Sans', 'Liberation Sans', 'DejaVu Sans', sans-serif; text-anchor: end" x="33.789062" y="168.437042" transform="rotate(-0 33.789062 168.437042)">0.2</text>
     </g>
    </g>
    <g id="ytick_3">
     <g id="line2d_20">
      <path d="M 40.789062 132.979355 
L 529.359063 132.979355 
" clip-path="url(#p6a8b51799f)" style="fill: none; stroke-dasharray: 2.22,0.96; stroke-dashoffset: 0; stroke: #ebebeb; stroke-width: 0.6"/>
     </g>
     <g id="line2d_21">
      <g>
       <use xlink:href="#mfb492e45cd" x="40.789062" y="132.979355" style="stroke: #000000; stroke-width: 0.75"/>
      </g>
     </g>
     <g id="text_18">
      <text style="font-size: 8px; font-family: 'Nimbus Sans', 'Liberation Sans', 'DejaVu Sans', sans-serif; text-anchor: end" x="33.789062" y="135.895605" transform="rotate(-0 33.789062 135.895605)">0.4</text>
     </g>
    </g>
    <g id="ytick_4">
     <g id="line2d_22">
      <path d="M 40.789062 100.437919 
L 529.359063 100.437919 
" clip-path="url(#p6a8b51799f)" style="fill: none; stroke-dasharray: 2.22,0.96; stroke-dashoffset: 0; stroke: #ebebeb; stroke-width: 0.6"/>
     </g>
     <g id="line2d_23">
      <g>
       <use xlink:href="#mfb492e45cd" x="40.789062" y="100.437919" style="stroke: #000000; stroke-width: 0.75"/>
      </g>
     </g>
     <g id="text_19">
      <text style="font-size: 8px; font-family: 'Nimbus Sans', 'Liberation Sans', 'DejaVu Sans', sans-serif; text-anchor: end" x="33.789062" y="103.354169" transform="rotate(-0 33.789062 103.354169)">0.6</text>
     </g>
    </g>
    <g id="ytick_5">
     <g id="line2d_24">
      <path d="M 40.789062 67.896483 
L 529.359063 67.896483 
" clip-path="url(#p6a8b51799f)" style="fill: none; stroke-dasharray: 2.22,0.96; stroke-dashoffset: 0; stroke: #ebebeb; stroke-width: 0.6"/>
     </g>
     <g id="line2d_25">
      <g>
       <use xlink:href="#mfb492e45cd" x="40.789062" y="67.896483" style="stroke: #000000; stroke-width: 0.75"/>
      </g>
     </g>
     <g id="text_20">
      <text style="font-size: 8px; font-family: 'Nimbus Sans', 'Liberation Sans', 'DejaVu Sans', sans-serif; text-anchor: end" x="33.789062" y="70.812733" transform="rotate(-0 33.789062 70.812733)">0.8</text>
     </g>
    </g>
    <g id="ytick_6">
     <g id="line2d_26">
      <path d="M 40.789062 35.355047 
L 529.359063 35.355047 
" clip-path="url(#p6a8b51799f)" style="fill: none; stroke-dasharray: 2.22,0.96; stroke-dashoffset: 0; stroke: #ebebeb; stroke-width: 0.6"/>
     </g>
     <g id="line2d_27">
      <g>
       <use xlink:href="#mfb492e45cd" x="40.789062" y="35.355047" style="stroke: #000000; stroke-width: 0.75"/>
      </g>
     </g>
     <g id="text_21">
      <text style="font-size: 8px; font-family: 'Nimbus Sans', 'Liberation Sans', 'DejaVu Sans', sans-serif; text-anchor: end" x="33.789062" y="38.271297" transform="rotate(-0 33.789062 38.271297)">1.0</text>
     </g>
    </g>
    <g id="text_22">
     <text style="font-weight: 700; font-size: 10px; font-family: 'Nimbus Sans', 'Liberation Sans', 'DejaVu Sans', sans-serif; text-anchor: middle" x="14.490625" y="112.640958" transform="rotate(-90 14.490625 112.640958)">F1 Score</text>
    </g>
   </g>
   <g id="LineCollection_1">
    <path d="M 58.467582 63.015267 
L 58.467582 125.006704 
" clip-path="url(#p6a8b51799f)" style="fill: none; stroke: #dcdcdc; stroke-width: 0.7"/>
   </g>
   <g id="LineCollection_2">
    <path d="M 90.610345 157.060018 
L 90.610345 189.764162 
" clip-path="url(#p6a8b51799f)" style="fill: none; stroke: #dcdcdc; stroke-width: 0.7"/>
   </g>
   <g id="LineCollection_3">
    <path d="M 122.753109 77.008085 
L 122.753109 129.23709 
" clip-path="url(#p6a8b51799f)" style="fill: none; stroke: #dcdcdc; stroke-width: 0.7"/>
   </g>
   <g id="LineCollection_4">
    <path d="M 154.895872 184.06941 
L 154.895872 188.299797 
" clip-path="url(#p6a8b51799f)" style="fill: none; stroke: #dcdcdc; stroke-width: 0.7"/>
   </g>
   <g id="LineCollection_5">
    <path d="M 187.038635 150.877145 
L 187.038635 186.835432 
" clip-path="url(#p6a8b51799f)" style="fill: none; stroke: #dcdcdc; stroke-width: 0.7"/>
   </g>
   <g id="LineCollection_6">
    <path d="M 219.181398 73.428527 
L 219.181398 88.560295 
" clip-path="url(#p6a8b51799f)" style="fill: none; stroke: #dcdcdc; stroke-width: 0.7"/>
   </g>
   <g id="LineCollection_7">
    <path d="M 251.324161 86.282394 
L 251.324161 90.512781 
" clip-path="url(#p6a8b51799f)" style="fill: none; stroke: #dcdcdc; stroke-width: 0.7"/>
   </g>
   <g id="LineCollection_8">
    <path d="M 283.466924 46.419135 
L 283.466924 49.347864 
" clip-path="url(#p6a8b51799f)" style="fill: none; stroke: #dcdcdc; stroke-width: 0.7"/>
   </g>
   <g id="LineCollection_9">
    <path d="M 315.609688 65.293168 
L 315.609688 116.54593 
" clip-path="url(#p6a8b51799f)" style="fill: none; stroke: #dcdcdc; stroke-width: 0.7"/>
   </g>
   <g id="LineCollection_10">
    <path d="M 347.752451 67.408361 
L 347.752451 78.309742 
" clip-path="url(#p6a8b51799f)" style="fill: none; stroke: #dcdcdc; stroke-width: 0.7"/>
   </g>
   <g id="LineCollection_11">
    <path d="M 379.895214 121.589853 
L 379.895214 185.208361 
" clip-path="url(#p6a8b51799f)" style="fill: none; stroke: #dcdcdc; stroke-width: 0.7"/>
   </g>
   <g id="LineCollection_12">
    <path d="M 412.037977 89.211124 
L 412.037977 90.02466 
" clip-path="url(#p6a8b51799f)" style="fill: none; stroke: #dcdcdc; stroke-width: 0.7"/>
   </g>
   <g id="LineCollection_13">
    <path d="M 444.18074 68.221897 
L 444.18074 96.37024 
" clip-path="url(#p6a8b51799f)" style="fill: none; stroke: #dcdcdc; stroke-width: 0.7"/>
   </g>
   <g id="LineCollection_14">
    <path d="M 476.323503 44.141234 
L 476.323503 43.327698 
" clip-path="url(#p6a8b51799f)" style="fill: none; stroke: #dcdcdc; stroke-width: 0.7"/>
   </g>
   <g id="LineCollection_15">
    <path d="M 508.466266 60.900074 
L 508.466266 68.547312 
" clip-path="url(#p6a8b51799f)" style="fill: none; stroke: #dcdcdc; stroke-width: 0.7"/>
   </g>
   <g id="LineCollection_16">
    <path d="M 61.681859 63.015267 
L 61.681859 124.843996 
" clip-path="url(#p6a8b51799f)" style="fill: none; stroke: #dcdcdc; stroke-width: 0.7"/>
   </g>
   <g id="LineCollection_17">
    <path d="M 93.824622 144.85698 
L 93.824622 186.510018 
" clip-path="url(#p6a8b51799f)" style="fill: none; stroke: #dcdcdc; stroke-width: 0.7"/>
   </g>
   <g id="LineCollection_18">
    <path d="M 125.967385 76.194549 
L 125.967385 124.518582 
" clip-path="url(#p6a8b51799f)" style="fill: none; stroke: #dcdcdc; stroke-width: 0.7"/>
   </g>
   <g id="LineCollection_19">
    <path d="M 158.110148 172.679908 
L 158.110148 165.03267 
" clip-path="url(#p6a8b51799f)" style="fill: none; stroke: #dcdcdc; stroke-width: 0.7"/>
   </g>
   <g id="LineCollection_20">
    <path d="M 190.252911 180.489852 
L 190.252911 146.158637 
" clip-path="url(#p6a8b51799f)" style="fill: none; stroke: #dcdcdc; stroke-width: 0.7"/>
   </g>
   <g id="LineCollection_21">
    <path d="M 222.395674 73.428527 
L 222.395674 88.072173 
" clip-path="url(#p6a8b51799f)" style="fill: none; stroke: #dcdcdc; stroke-width: 0.7"/>
   </g>
   <g id="LineCollection_22">
    <path d="M 254.538438 92.30256 
L 254.538438 84.492615 
" clip-path="url(#p6a8b51799f)" style="fill: none; stroke: #dcdcdc; stroke-width: 0.7"/>
   </g>
   <g id="LineCollection_23">
    <path d="M 286.681201 46.256428 
L 286.681201 55.042616 
" clip-path="url(#p6a8b51799f)" style="fill: none; stroke: #dcdcdc; stroke-width: 0.7"/>
   </g>
   <g id="LineCollection_24">
    <path d="M 318.823964 65.293168 
L 318.823964 117.847588 
" clip-path="url(#p6a8b51799f)" style="fill: none; stroke: #dcdcdc; stroke-width: 0.7"/>
   </g>
   <g id="LineCollection_25">
    <path d="M 350.966727 67.408361 
L 350.966727 77.496207 
" clip-path="url(#p6a8b51799f)" style="fill: none; stroke: #dcdcdc; stroke-width: 0.7"/>
   </g>
   <g id="LineCollection_26">
    <path d="M 383.10949 121.589853 
L 383.10949 184.882946 
" clip-path="url(#p6a8b51799f)" style="fill: none; stroke: #dcdcdc; stroke-width: 0.7"/>
   </g>
   <g id="LineCollection_27">
    <path d="M 415.252253 89.211124 
L 415.252253 102.878527 
" clip-path="url(#p6a8b51799f)" style="fill: none; stroke: #dcdcdc; stroke-width: 0.7"/>
   </g>
   <g id="LineCollection_28">
    <path d="M 447.395016 67.571068 
L 447.395016 95.556704 
" clip-path="url(#p6a8b51799f)" style="fill: none; stroke: #dcdcdc; stroke-width: 0.7"/>
   </g>
   <g id="LineCollection_29">
    <path d="M 479.53778 44.141234 
L 479.53778 43.327698 
" clip-path="url(#p6a8b51799f)" style="fill: none; stroke: #dcdcdc; stroke-width: 0.7"/>
   </g>
   <g id="LineCollection_30">
    <path d="M 511.680543 60.900074 
L 511.680543 66.432118 
" clip-path="url(#p6a8b51799f)" style="fill: none; stroke: #dcdcdc; stroke-width: 0.7"/>
   </g>
   <g id="LineCollection_31">
    <path d="M 64.896135 63.177975 
L 64.896135 123.542339 
" clip-path="url(#p6a8b51799f)" style="fill: none; stroke: #dcdcdc; stroke-width: 0.7"/>
   </g>
   <g id="LineCollection_32">
    <path d="M 97.038898 144.85698 
L 97.038898 185.696482 
" clip-path="url(#p6a8b51799f)" style="fill: none; stroke: #dcdcdc; stroke-width: 0.7"/>
   </g>
   <g id="LineCollection_33">
    <path d="M 129.181661 76.194549 
L 129.181661 125.657532 
" clip-path="url(#p6a8b51799f)" style="fill: none; stroke: #dcdcdc; stroke-width: 0.7"/>
   </g>
   <g id="LineCollection_34">
    <path d="M 161.324424 168.937643 
L 161.324424 161.453112 
" clip-path="url(#p6a8b51799f)" style="fill: none; stroke: #dcdcdc; stroke-width: 0.7"/>
   </g>
   <g id="LineCollection_35">
    <path d="M 193.467188 180.489852 
L 193.467188 143.880737 
" clip-path="url(#p6a8b51799f)" style="fill: none; stroke: #dcdcdc; stroke-width: 0.7"/>
   </g>
   <g id="LineCollection_36">
    <path d="M 225.609951 72.614991 
L 225.609951 84.167201 
" clip-path="url(#p6a8b51799f)" style="fill: none; stroke: #dcdcdc; stroke-width: 0.7"/>
   </g>
   <g id="LineCollection_37">
    <path d="M 257.752714 91.814439 
L 257.752714 79.123278 
" clip-path="url(#p6a8b51799f)" style="fill: none; stroke: #dcdcdc; stroke-width: 0.7"/>
   </g>
   <g id="LineCollection_38">
    <path d="M 289.895477 45.605599 
L 289.895477 53.252837 
" clip-path="url(#p6a8b51799f)" style="fill: none; stroke: #dcdcdc; stroke-width: 0.7"/>
   </g>
   <g id="LineCollection_39">
    <path d="M 322.03824 65.130461 
L 322.03824 115.732394 
" clip-path="url(#p6a8b51799f)" style="fill: none; stroke: #dcdcdc; stroke-width: 0.7"/>
   </g>
   <g id="LineCollection_40">
    <path d="M 354.181003 67.408361 
L 354.181003 69.848969 
" clip-path="url(#p6a8b51799f)" style="fill: none; stroke: #dcdcdc; stroke-width: 0.7"/>
   </g>
   <g id="LineCollection_41">
    <path d="M 386.323766 119.311952 
L 386.323766 178.537366 
" clip-path="url(#p6a8b51799f)" style="fill: none; stroke: #dcdcdc; stroke-width: 0.7"/>
   </g>
   <g id="LineCollection_42">
    <path d="M 418.46653 89.373831 
L 418.46653 86.770516 
" clip-path="url(#p6a8b51799f)" style="fill: none; stroke: #dcdcdc; stroke-width: 0.7"/>
   </g>
   <g id="LineCollection_43">
    <path d="M 450.609293 67.082947 
L 450.609293 96.044825 
" clip-path="url(#p6a8b51799f)" style="fill: none; stroke: #dcdcdc; stroke-width: 0.7"/>
   </g>
   <g id="LineCollection_44">
    <path d="M 482.752056 44.141234 
L 482.752056 59.923831 
" clip-path="url(#p6a8b51799f)" style="fill: none; stroke: #dcdcdc; stroke-width: 0.7"/>
   </g>
   <g id="LineCollection_45">
    <path d="M 514.894819 60.900074 
L 514.894819 66.92024 
" clip-path="url(#p6a8b51799f)" style="fill: none; stroke: #dcdcdc; stroke-width: 0.7"/>
   </g>
   <g id="patch_3">
    <path d="M 40.789062 198.062228 
L 40.789062 27.219687 
" style="fill: none; stroke: #000000; stroke-width: 0.75; stroke-linejoin: miter; stroke-linecap: square"/>
   </g>
   <g id="patch_4">
    <path d="M 40.789062 198.062228 
L 529.359063 198.062228 
" style="fill: none; stroke: #000000; stroke-width: 0.75; stroke-linejoin: miter; stroke-linecap: square"/>
   </g>
   <g id="PathCollection_1">
    <defs>
     <path id="m6ecfdfbebf" d="M 0 1.118034 
C 0.296506 1.118034 0.580908 1.000231 0.790569 0.790569 
C 1.000231 0.580908 1.118034 0.296506 1.118034 0 
C 1.118034 -0.296506 1.000231 -0.580908 0.790569 -0.790569 
C 0.580908 -1.000231 0.296506 -1.118034 0 -1.118034 
C -0.296506 -1.118034 -0.580908 -1.000231 -0.790569 -0.790569 
C -1.000231 -0.580908 -1.118034 -0.296506 -1.118034 0 
C -1.118034 0.296506 -1.000231 0.580908 -0.790569 0.790569 
C -0.580908 1.000231 -0.296506 1.118034 0 1.118034 
z
" style="stroke: #c05a2e; stroke-width: 0.7"/>
    </defs>
    <g clip-path="url(#p6a8b51799f)">
     <use xlink:href="#m6ecfdfbebf" x="58.467582" y="63.015267" style="fill: #ffffff; stroke: #c05a2e; stroke-width: 0.7"/>
     <use xlink:href="#m6ecfdfbebf" x="90.610345" y="157.060018" style="fill: #ffffff; stroke: #c05a2e; stroke-width: 0.7"/>
     <use xlink:href="#m6ecfdfbebf" x="122.753109" y="77.008085" style="fill: #ffffff; stroke: #c05a2e; stroke-width: 0.7"/>
     <use xlink:href="#m6ecfdfbebf" x="154.895872" y="184.06941" style="fill: #ffffff; stroke: #c05a2e; stroke-width: 0.7"/>
     <use xlink:href="#m6ecfdfbebf" x="187.038635" y="150.877145" style="fill: #ffffff; stroke: #c05a2e; stroke-width: 0.7"/>
     <use xlink:href="#m6ecfdfbebf" x="219.181398" y="73.428527" style="fill: #ffffff; stroke: #c05a2e; stroke-width: 0.7"/>
     <use xlink:href="#m6ecfdfbebf" x="251.324161" y="86.282394" style="fill: #ffffff; stroke: #c05a2e; stroke-width: 0.7"/>
     <use xlink:href="#m6ecfdfbebf" x="283.466924" y="46.419135" style="fill: #ffffff; stroke: #c05a2e; stroke-width: 0.7"/>
     <use xlink:href="#m6ecfdfbebf" x="315.609688" y="65.293168" style="fill: #ffffff; stroke: #c05a2e; stroke-width: 0.7"/>
     <use xlink:href="#m6ecfdfbebf" x="347.752451" y="67.408361" style="fill: #ffffff; stroke: #c05a2e; stroke-width: 0.7"/>
     <use xlink:href="#m6ecfdfbebf" x="379.895214" y="121.589853" style="fill: #ffffff; stroke: #c05a2e; stroke-width: 0.7"/>
     <use xlink:href="#m6ecfdfbebf" x="412.037977" y="89.211124" style="fill: #ffffff; stroke: #c05a2e; stroke-width: 0.7"/>
     <use xlink:href="#m6ecfdfbebf" x="444.18074" y="68.221897" style="fill: #ffffff; stroke: #c05a2e; stroke-width: 0.7"/>
     <use xlink:href="#m6ecfdfbebf" x="476.323503" y="44.141234" style="fill: #ffffff; stroke: #c05a2e; stroke-width: 0.7"/>
     <use xlink:href="#m6ecfdfbebf" x="508.466266" y="60.900074" style="fill: #ffffff; stroke: #c05a2e; stroke-width: 0.7"/>
    </g>
   </g>
   <g id="PathCollection_2">
    <defs>
     <path id="m363c536f68" d="M 0 1.118034 
C 0.296506 1.118034 0.580908 1.000231 0.790569 0.790569 
C 1.000231 0.580908 1.118034 0.296506 1.118034 0 
C 1.118034 -0.296506 1.000231 -0.580908 0.790569 -0.790569 
C 0.580908 -1.000231 0.296506 -1.118034 0 -1.118034 
C -0.296506 -1.118034 -0.580908 -1.000231 -0.790569 -0.790569 
C -1.000231 -0.580908 -1.118034 -0.296506 -1.118034 0 
C -1.118034 0.296506 -1.000231 0.580908 -0.790569 0.790569 
C -0.580908 1.000231 -0.296506 1.118034 0 1.118034 
z
" style="stroke: #3a7d44; stroke-width: 0.7"/>
    </defs>
    <g clip-path="url(#p6a8b51799f)">
     <use xlink:href="#m363c536f68" x="61.681859" y="63.015267" style="fill: #ffffff; stroke: #3a7d44; stroke-width: 0.7"/>
     <use xlink:href="#m363c536f68" x="93.824622" y="144.85698" style="fill: #ffffff; stroke: #3a7d44; stroke-width: 0.7"/>
     <use xlink:href="#m363c536f68" x="125.967385" y="76.194549" style="fill: #ffffff; stroke: #3a7d44; stroke-width: 0.7"/>
     <use xlink:href="#m363c536f68" x="158.110148" y="172.679908" style="fill: #ffffff; stroke: #3a7d44; stroke-width: 0.7"/>
     <use xlink:href="#m363c536f68" x="190.252911" y="180.489852" style="fill: #ffffff; stroke: #3a7d44; stroke-width: 0.7"/>
     <use xlink:href="#m363c536f68" x="222.395674" y="73.428527" style="fill: #ffffff; stroke: #3a7d44; stroke-width: 0.7"/>
     <use xlink:href="#m363c536f68" x="254.538438" y="92.30256" style="fill: #ffffff; stroke: #3a7d44; stroke-width: 0.7"/>
     <use xlink:href="#m363c536f68" x="286.681201" y="46.256428" style="fill: #ffffff; stroke: #3a7d44; stroke-width: 0.7"/>
     <use xlink:href="#m363c536f68" x="318.823964" y="65.293168" style="fill: #ffffff; stroke: #3a7d44; stroke-width: 0.7"/>
     <use xlink:href="#m363c536f68" x="350.966727" y="67.408361" style="fill: #ffffff; stroke: #3a7d44; stroke-width: 0.7"/>
     <use xlink:href="#m363c536f68" x="383.10949" y="121.589853" style="fill: #ffffff; stroke: #3a7d44; stroke-width: 0.7"/>
     <use xlink:href="#m363c536f68" x="415.252253" y="89.211124" style="fill: #ffffff; stroke: #3a7d44; stroke-width: 0.7"/>
     <use xlink:href="#m363c536f68" x="447.395016" y="67.571068" style="fill: #ffffff; stroke: #3a7d44; stroke-width: 0.7"/>
     <use xlink:href="#m363c536f68" x="479.53778" y="44.141234" style="fill: #ffffff; stroke: #3a7d44; stroke-width: 0.7"/>
     <use xlink:href="#m363c536f68" x="511.680543" y="60.900074" style="fill: #ffffff; stroke: #3a7d44; stroke-width: 0.7"/>
    </g>
   </g>
   <g id="PathCollection_3">
    <defs>
     <path id="m37531b6485" d="M 0 1.118034 
C 0.296506 1.118034 0.580908 1.000231 0.790569 0.790569 
C 1.000231 0.580908 1.118034 0.296506 1.118034 0 
C 1.118034 -0.296506 1.000231 -0.580908 0.790569 -0.790569 
C 0.580908 -1.000231 0.296506 -1.118034 0 -1.118034 
C -0.296506 -1.118034 -0.580908 -1.000231 -0.790569 -0.790569 
C -1.000231 -0.580908 -1.118034 -0.296506 -1.118034 0 
C -1.118034 0.296506 -1.000231 0.580908 -0.790569 0.790569 
C -0.580908 1.000231 -0.296506 1.118034 0 1.118034 
z
" style="stroke: #8b3a62; stroke-width: 0.7"/>
    </defs>
    <g clip-path="url(#p6a8b51799f)">
     <use xlink:href="#m37531b6485" x="64.896135" y="63.177975" style="fill: #ffffff; stroke: #8b3a62; stroke-width: 0.7"/>
     <use xlink:href="#m37531b6485" x="97.038898" y="144.85698" style="fill: #ffffff; stroke: #8b3a62; stroke-width: 0.7"/>
     <use xlink:href="#m37531b6485" x="129.181661" y="76.194549" style="fill: #ffffff; stroke: #8b3a62; stroke-width: 0.7"/>
     <use xlink:href="#m37531b6485" x="161.324424" y="168.937643" style="fill: #ffffff; stroke: #8b3a62; stroke-width: 0.7"/>
     <use xlink:href="#m37531b6485" x="193.467188" y="180.489852" style="fill: #ffffff; stroke: #8b3a62; stroke-width: 0.7"/>
     <use xlink:href="#m37531b6485" x="225.609951" y="72.614991" style="fill: #ffffff; stroke: #8b3a62; stroke-width: 0.7"/>
     <use xlink:href="#m37531b6485" x="257.752714" y="91.814439" style="fill: #ffffff; stroke: #8b3a62; stroke-width: 0.7"/>
     <use xlink:href="#m37531b6485" x="289.895477" y="45.605599" style="fill: #ffffff; stroke: #8b3a62; stroke-width: 0.7"/>
     <use xlink:href="#m37531b6485" x="322.03824" y="65.130461" style="fill: #ffffff; stroke: #8b3a62; stroke-width: 0.7"/>
     <use xlink:href="#m37531b6485" x="354.181003" y="67.408361" style="fill: #ffffff; stroke: #8b3a62; stroke-width: 0.7"/>
     <use xlink:href="#m37531b6485" x="386.323766" y="119.311952" style="fill: #ffffff; stroke: #8b3a62; stroke-width: 0.7"/>
     <use xlink:href="#m37531b6485" x="418.46653" y="89.373831" style="fill: #ffffff; stroke: #8b3a62; stroke-width: 0.7"/>
     <use xlink:href="#m37531b6485" x="450.609293" y="67.082947" style="fill: #ffffff; stroke: #8b3a62; stroke-width: 0.7"/>
     <use xlink:href="#m37531b6485" x="482.752056" y="44.141234" style="fill: #ffffff; stroke: #8b3a62; stroke-width: 0.7"/>
     <use xlink:href="#m37531b6485" x="514.894819" y="60.900074" style="fill: #ffffff; stroke: #8b3a62; stroke-width: 0.7"/>
    </g>
   </g>
   <g id="text_23">
    <text style="font-weight: 700; font-size: 11px; font-family: 'Nimbus Sans', 'Liberation Sans', 'DejaVu Sans', sans-serif; text-anchor: middle" x="285.074063" y="15.219687" transform="rotate(-0 285.074063 15.219687)">Model Performance Evaluation: F1 Score</text>
   </g>
   <g id="PathCollection_4">
    <defs>
     <path id="m9159c0050e" d="M 0 2 
C 0.530406 2 1.03916 1.789267 1.414214 1.414214 
C 1.789267 1.03916 2 0.530406 2 0 
C 2 -0.530406 1.789267 -1.03916 1.414214 -1.414214 
C 1.03916 -1.789267 0.530406 -2 0 -2 
C -0.530406 -2 -1.03916 -1.789267 -1.414214 -1.414214 
C -1.789267 -1.03916 -2 -0.530406 -2 0 
C -2 0.530406 -1.789267 1.03916 -1.414214 1.414214 
C -1.03916 1.789267 -0.530406 2 0 2 
z
" style="stroke: #ffffff; stroke-width: 0.4"/>
    </defs>
    <g clip-path="url(#p6a8b51799f)">
     <use xlink:href="#m9159c0050e" x="55.253306" y="57.808638" style="fill: #2e5e9e; stroke: #ffffff; stroke-width: 0.4"/>
     <use xlink:href="#m9159c0050e" x="87.396069" y="138.836814" style="fill: #2e5e9e; stroke: #ffffff; stroke-width: 0.4"/>
     <use xlink:href="#m9159c0050e" x="119.538832" y="71.638748" style="fill: #2e5e9e; stroke: #ffffff; stroke-width: 0.4"/>
     <use xlink:href="#m9159c0050e" x="151.681595" y="171.703665" style="fill: #2e5e9e; stroke: #ffffff; stroke-width: 0.4"/>
     <use xlink:href="#m9159c0050e" x="183.824359" y="150.226317" style="fill: #2e5e9e; stroke: #ffffff; stroke-width: 0.4"/>
     <use xlink:href="#m9159c0050e" x="215.967122" y="70.825212" style="fill: #2e5e9e; stroke: #ffffff; stroke-width: 0.4"/>
     <use xlink:href="#m9159c0050e" x="248.109885" y="80.75035" style="fill: #2e5e9e; stroke: #ffffff; stroke-width: 0.4"/>
     <use xlink:href="#m9159c0050e" x="280.252648" y="44.629356" style="fill: #2e5e9e; stroke: #ffffff; stroke-width: 0.4"/>
     <use xlink:href="#m9159c0050e" x="312.395411" y="62.039024" style="fill: #2e5e9e; stroke: #ffffff; stroke-width: 0.4"/>
     <use xlink:href="#m9159c0050e" x="344.538174" y="52.927422" style="fill: #2e5e9e; stroke: #ffffff; stroke-width: 0.4"/>
     <use xlink:href="#m9159c0050e" x="376.680938" y="116.383223" style="fill: #2e5e9e; stroke: #ffffff; stroke-width: 0.4"/>
     <use xlink:href="#m9159c0050e" x="408.823701" y="75.54372" style="fill: #2e5e9e; stroke: #ffffff; stroke-width: 0.4"/>
     <use xlink:href="#m9159c0050e" x="440.966464" y="59.761124" style="fill: #2e5e9e; stroke: #ffffff; stroke-width: 0.4"/>
     <use xlink:href="#m9159c0050e" x="473.109227" y="42.839577" style="fill: #2e5e9e; stroke: #ffffff; stroke-width: 0.4"/>
     <use xlink:href="#m9159c0050e" x="505.25199" y="57.808638" style="fill: #2e5e9e; stroke: #ffffff; stroke-width: 0.4"/>
    </g>
   </g>
   <g id="PathCollection_5">
    <defs>
     <path id="me9ec0e2b76" d="M 0 2 
C 0.530406 2 1.03916 1.789267 1.414214 1.414214 
C 1.789267 1.03916 2 0.530406 2 0 
C 2 -0.530406 1.789267 -1.03916 1.414214 -1.414214 
C 1.03916 -1.789267 0.530406 -2 0 -2 
C -0.530406 -2 -1.03916 -1.789267 -1.414214 -1.414214 
C -1.789267 -1.03916 -2 -0.530406 -2 0 
C -2 0.530406 -1.789267 1.03916 -1.414214 1.414214 
C -1.03916 1.789267 -0.530406 2 0 2 
z
" style="stroke: #ffffff; stroke-width: 0.4"/>
    </defs>
    <g clip-path="url(#p6a8b51799f)">
     <use xlink:href="#me9ec0e2b76" x="58.467582" y="125.006704" style="fill: #c05a2e; stroke: #ffffff; stroke-width: 0.4"/>
     <use xlink:href="#me9ec0e2b76" x="90.610345" y="189.764162" style="fill: #c05a2e; stroke: #ffffff; stroke-width: 0.4"/>
     <use xlink:href="#me9ec0e2b76" x="122.753109" y="129.23709" style="fill: #c05a2e; stroke: #ffffff; stroke-width: 0.4"/>
     <use xlink:href="#me9ec0e2b76" x="154.895872" y="188.299797" style="fill: #c05a2e; stroke: #ffffff; stroke-width: 0.4"/>
     <use xlink:href="#me9ec0e2b76" x="187.038635" y="186.835432" style="fill: #c05a2e; stroke: #ffffff; stroke-width: 0.4"/>
     <use xlink:href="#me9ec0e2b76" x="219.181398" y="88.560295" style="fill: #c05a2e; stroke: #ffffff; stroke-width: 0.4"/>
     <use xlink:href="#me9ec0e2b76" x="251.324161" y="90.512781" style="fill: #c05a2e; stroke: #ffffff; stroke-width: 0.4"/>
     <use xlink:href="#me9ec0e2b76" x="283.466924" y="49.347864" style="fill: #c05a2e; stroke: #ffffff; stroke-width: 0.4"/>
     <use xlink:href="#me9ec0e2b76" x="315.609688" y="116.54593" style="fill: #c05a2e; stroke: #ffffff; stroke-width: 0.4"/>
     <use xlink:href="#me9ec0e2b76" x="347.752451" y="78.309742" style="fill: #c05a2e; stroke: #ffffff; stroke-width: 0.4"/>
     <use xlink:href="#me9ec0e2b76" x="379.895214" y="185.208361" style="fill: #c05a2e; stroke: #ffffff; stroke-width: 0.4"/>
     <use xlink:href="#me9ec0e2b76" x="412.037977" y="90.02466" style="fill: #c05a2e; stroke: #ffffff; stroke-width: 0.4"/>
     <use xlink:href="#me9ec0e2b76" x="444.18074" y="96.37024" style="fill: #c05a2e; stroke: #ffffff; stroke-width: 0.4"/>
     <use xlink:href="#me9ec0e2b76" x="476.323503" y="43.327698" style="fill: #c05a2e; stroke: #ffffff; stroke-width: 0.4"/>
     <use xlink:href="#me9ec0e2b76" x="508.466266" y="68.547312" style="fill: #c05a2e; stroke: #ffffff; stroke-width: 0.4"/>
    </g>
   </g>
   <g id="PathCollection_6">
    <defs>
     <path id="m1a267ce966" d="M 0 2 
C 0.530406 2 1.03916 1.789267 1.414214 1.414214 
C 1.789267 1.03916 2 0.530406 2 0 
C 2 -0.530406 1.789267 -1.03916 1.414214 -1.414214 
C 1.03916 -1.789267 0.530406 -2 0 -2 
C -0.530406 -2 -1.03916 -1.789267 -1.414214 -1.414214 
C -1.789267 -1.03916 -2 -0.530406 -2 0 
C -2 0.530406 -1.789267 1.03916 -1.414214 1.414214 
C -1.03916 1.789267 -0.530406 2 0 2 
z
" style="stroke: #ffffff; stroke-width: 0.4"/>
    </defs>
    <g clip-path="url(#p6a8b51799f)">
     <use xlink:href="#m1a267ce966" x="61.681859" y="124.843996" style="fill: #3a7d44; stroke: #ffffff; stroke-width: 0.4"/>
     <use xlink:href="#m1a267ce966" x="93.824622" y="186.510018" style="fill: #3a7d44; stroke: #ffffff; stroke-width: 0.4"/>
     <use xlink:href="#m1a267ce966" x="125.967385" y="124.518582" style="fill: #3a7d44; stroke: #ffffff; stroke-width: 0.4"/>
     <use xlink:href="#m1a267ce966" x="158.110148" y="165.03267" style="fill: #3a7d44; stroke: #ffffff; stroke-width: 0.4"/>
     <use xlink:href="#m1a267ce966" x="190.252911" y="146.158637" style="fill: #3a7d44; stroke: #ffffff; stroke-width: 0.4"/>
     <use xlink:href="#m1a267ce966" x="222.395674" y="88.072173" style="fill: #3a7d44; stroke: #ffffff; stroke-width: 0.4"/>
     <use xlink:href="#m1a267ce966" x="254.538438" y="84.492615" style="fill: #3a7d44; stroke: #ffffff; stroke-width: 0.4"/>
     <use xlink:href="#m1a267ce966" x="286.681201" y="55.042616" style="fill: #3a7d44; stroke: #ffffff; stroke-width: 0.4"/>
     <use xlink:href="#m1a267ce966" x="318.823964" y="117.847588" style="fill: #3a7d44; stroke: #ffffff; stroke-width: 0.4"/>
     <use xlink:href="#m1a267ce966" x="350.966727" y="77.496207" style="fill: #3a7d44; stroke: #ffffff; stroke-width: 0.4"/>
     <use xlink:href="#m1a267ce966" x="383.10949" y="184.882946" style="fill: #3a7d44; stroke: #ffffff; stroke-width: 0.4"/>
     <use xlink:href="#m1a267ce966" x="415.252253" y="102.878527" style="fill: #3a7d44; stroke: #ffffff; stroke-width: 0.4"/>
     <use xlink:href="#m1a267ce966" x="447.395016" y="95.556704" style="fill: #3a7d44; stroke: #ffffff; stroke-width: 0.4"/>
     <use xlink:href="#m1a267ce966" x="479.53778" y="43.327698" style="fill: #3a7d44; stroke: #ffffff; stroke-width: 0.4"/>
     <use xlink:href="#m1a267ce966" x="511.680543" y="66.432118" style="fill: #3a7d44; stroke: #ffffff; stroke-width: 0.4"/>
    </g>
   </g>
   <g id="PathCollection_7">
    <defs>
     <path id="m1a6bd33552" d="M 0 2 
C 0.530406 2 1.03916 1.789267 1.414214 1.414214 
C 1.789267 1.03916 2 0.530406 2 0 
C 2 -0.530406 1.789267 -1.03916 1.414214 -1.414214 
C 1.03916 -1.789267 0.530406 -2 0 -2 
C -0.530406 -2 -1.03916 -1.789267 -1.414214 -1.414214 
C -1.789267 -1.03916 -2 -0.530406 -2 0 
C -2 0.530406 -1.789267 1.03916 -1.414214 1.414214 
C -1.03916 1.789267 -0.530406 2 0 2 
z
" style="stroke: #ffffff; stroke-width: 0.4"/>
    </defs>
    <g clip-path="url(#p6a8b51799f)">
     <use xlink:href="#m1a6bd33552" x="64.896135" y="123.542339" style="fill: #8b3a62; stroke: #ffffff; stroke-width: 0.4"/>
     <use xlink:href="#m1a6bd33552" x="97.038898" y="185.696482" style="fill: #8b3a62; stroke: #ffffff; stroke-width: 0.4"/>
     <use xlink:href="#m1a6bd33552" x="129.181661" y="125.657532" style="fill: #8b3a62; stroke: #ffffff; stroke-width: 0.4"/>
     <use xlink:href="#m1a6bd33552" x="161.324424" y="161.453112" style="fill: #8b3a62; stroke: #ffffff; stroke-width: 0.4"/>
     <use xlink:href="#m1a6bd33552" x="193.467188" y="143.880737" style="fill: #8b3a62; stroke: #ffffff; stroke-width: 0.4"/>
     <use xlink:href="#m1a6bd33552" x="225.609951" y="84.167201" style="fill: #8b3a62; stroke: #ffffff; stroke-width: 0.4"/>
     <use xlink:href="#m1a6bd33552" x="257.752714" y="79.123278" style="fill: #8b3a62; stroke: #ffffff; stroke-width: 0.4"/>
     <use xlink:href="#m1a6bd33552" x="289.895477" y="53.252837" style="fill: #8b3a62; stroke: #ffffff; stroke-width: 0.4"/>
     <use xlink:href="#m1a6bd33552" x="322.03824" y="115.732394" style="fill: #8b3a62; stroke: #ffffff; stroke-width: 0.4"/>
     <use xlink:href="#m1a6bd33552" x="354.181003" y="69.848969" style="fill: #8b3a62; stroke: #ffffff; stroke-width: 0.4"/>
     <use xlink:href="#m1a6bd33552" x="386.323766" y="178.537366" style="fill: #8b3a62; stroke: #ffffff; stroke-width: 0.4"/>
     <use xlink:href="#m1a6bd33552" x="418.46653" y="86.770516" style="fill: #8b3a62; stroke: #ffffff; stroke-width: 0.4"/>
     <use xlink:href="#m1a6bd33552" x="450.609293" y="96.044825" style="fill: #8b3a62; stroke: #ffffff; stroke-width: 0.4"/>
     <use xlink:href="#m1a6bd33552" x="482.752056" y="59.923831" style="fill: #8b3a62; stroke: #ffffff; stroke-width: 0.4"/>
     <use xlink:href="#m1a6bd33552" x="514.894819" y="66.92024" style="fill: #8b3a62; stroke: #ffffff; stroke-width: 0.4"/>
    </g>
   </g>
  </g>
  <g id="legend_1">
   <g id="patch_5">
    <path d="M 88.900742 283.489688 
L 447.097383 283.489688 
Q 448.797383 283.489688 448.797383 281.789688 
L 448.797383 257.838281 
Q 448.797383 256.138281 447.097383 256.138281 
L 88.900742 256.138281 
Q 87.200742 256.138281 87.200742 257.838281 
L 87.200742 281.789688 
Q 87.200742 283.489688 88.900742 283.489688 
z
" style="fill: #ffffff; opacity: 0.8"/>
   </g>
   <g id="line2d_28">
    <defs>
     <path id="m3017075e77" d="M 0 2.25 
C 0.596707 2.25 1.169055 2.012926 1.59099 1.59099 
C 2.012926 1.169055 2.25 0.596707 2.25 0 
C 2.25 -0.596707 2.012926 -1.169055 1.59099 -1.59099 
C 1.169055 -2.012926 0.596707 -2.25 0 -2.25 
C -0.596707 -2.25 -1.169055 -2.012926 -1.59099 -1.59099 
C -2.012926 -1.169055 -2.25 -0.596707 -2.25 0 
C -2.25 0.596707 -2.012926 1.169055 -1.59099 1.59099 
C -1.169055 2.012926 -0.596707 2.25 0 2.25 
z
" style="stroke: #ffffff; stroke-width: 0.4"/>
    </defs>
    <g>
     <use xlink:href="#m3017075e77" x="99.100742" y="262.86125" style="fill: #2e5e9e; stroke: #ffffff; stroke-width: 0.4"/>
    </g>
   </g>
   <g id="text_24">
    <text style="font-size: 8.5px; font-family: 'Nimbus Sans', 'Liberation Sans', 'DejaVu Sans', sans-serif; text-anchor: start" x="114.400742" y="265.83625" transform="rotate(-0 114.400742 265.83625)">TB-Profiler</text>
   </g>
   <g id="line2d_29">
    <defs>
     <path id="m50547073c0" d="M 0 2.25 
C 0.596707 2.25 1.169055 2.012926 1.59099 1.59099 
C 2.012926 1.169055 2.25 0.596707 2.25 0 
C 2.25 -0.596707 2.012926 -1.169055 1.59099 -1.59099 
C 1.169055 -2.012926 0.596707 -2.25 0 -2.25 
C -0.596707 -2.25 -1.169055 -2.012926 -1.59099 -1.59099 
C -2.012926 -1.169055 -2.25 -0.596707 -2.25 0 
C -2.25 0.596707 -2.012926 1.169055 -1.59099 1.59099 
C -1.169055 2.012926 -0.596707 2.25 0 2.25 
z
" style="stroke: #ffffff; stroke-width: 0.4"/>
    </defs>
    <g>
     <use xlink:href="#m50547073c0" x="99.100742" y="275.161016" style="fill: #c05a2e; stroke: #ffffff; stroke-width: 0.4"/>
    </g>
   </g>
   <g id="text_25">
    <text style="font-size: 8.5px; font-family: 'Nimbus Sans', 'Liberation Sans', 'DejaVu Sans', sans-serif; text-anchor: start" x="114.400742" y="278.136016" transform="rotate(-0 114.400742 278.136016)">WHO</text>
   </g>
   <g id="line2d_30">
    <defs>
     <path id="me098df4e51" d="M 0 2.25 
C 0.596707 2.25 1.169055 2.012926 1.59099 1.59099 
C 2.012926 1.169055 2.25 0.596707 2.25 0 
C 2.25 -0.596707 2.012926 -1.169055 1.59099 -1.59099 
C 1.169055 -2.012926 0.596707 -2.25 0 -2.25 
C -0.596707 -2.25 -1.169055 -2.012926 -1.59099 -1.59099 
C -2.012926 -1.169055 -2.25 -0.596707 -2.25 0 
C -2.25 0.596707 -2.012926 1.169055 -1.59099 1.59099 
C -1.169055 2.012926 -0.596707 2.25 0 2.25 
z
" style="stroke: #ffffff; stroke-width: 0.4"/>
    </defs>
    <g>
     <use xlink:href="#me098df4e51" x="180.512148" y="262.86125" style="fill: #3a7d44; stroke: #ffffff; stroke-width: 0.4"/>
    </g>
   </g>
   <g id="text_26">
    <text style="font-size: 8.5px; font-family: 'Nimbus Sans', 'Liberation Sans', 'DejaVu Sans', sans-serif; text-anchor: start" x="195.812148" y="265.83625" transform="rotate(-0 195.812148 265.83625)">WHO+Expert Rules</text>
   </g>
   <g id="line2d_31">
    <defs>
     <path id="m4d28e6d123" d="M 0 2.25 
C 0.596707 2.25 1.169055 2.012926 1.59099 1.59099 
C 2.012926 1.169055 2.25 0.596707 2.25 0 
C 2.25 -0.596707 2.012926 -1.169055 1.59099 -1.59099 
C 1.169055 -2.012926 0.596707 -2.25 0 -2.25 
C -0.596707 -2.25 -1.169055 -2.012926 -1.59099 -1.59099 
C -2.012926 -1.169055 -2.25 -0.596707 -2.25 0 
C -2.25 0.596707 -2.012926 1.169055 -1.59099 1.59099 
C -1.169055 2.012926 -0.596707 2.25 0 2.25 
z
" style="stroke: #ffffff; stroke-width: 0.4"/>
    </defs>
    <g>
     <use xlink:href="#m4d28e6d123" x="180.512148" y="275.261953" style="fill: #8b3a62; stroke: #ffffff; stroke-width: 0.4"/>
    </g>
   </g>
   <g id="text_27">
    <text style="font-size: 8.5px; font-family: 'Nimbus Sans', 'Liberation Sans', 'DejaVu Sans', sans-serif; text-anchor: start" x="195.812148" y="278.236953" transform="rotate(-0 195.812148 278.236953)">WHO+Expert Rules+Filtered</text>
   </g>
   <g id="line2d_32">
    <defs>
     <path id="m863b610a92" d="M 0 1.75 
C 0.464105 1.75 0.909265 1.565609 1.237437 1.237437 
C 1.565609 0.909265 1.75 0.464105 1.75 0 
C 1.75 -0.464105 1.565609 -0.909265 1.237437 -1.237437 
C 0.909265 -1.565609 0.464105 -1.75 0 -1.75 
C -0.464105 -1.75 -0.909265 -1.565609 -1.237437 -1.237437 
C -1.565609 -0.909265 -1.75 -0.464105 -1.75 0 
C -1.75 0.464105 -1.565609 0.909265 -1.237437 1.237437 
C -0.909265 1.565609 -0.464105 1.75 0 1.75 
z
" style="stroke: #555555; stroke-width: 0.7"/>
    </defs>
    <g>
     <use xlink:href="#m863b610a92" x="329.004492" y="262.86125" style="fill: #ffffff; stroke: #555555; stroke-width: 0.7"/>
    </g>
   </g>
   <g id="text_28">
    <text style="font-size: 8.5px; font-family: 'Nimbus Sans', 'Liberation Sans', 'DejaVu Sans', sans-serif; text-anchor: start" x="344.304492" y="265.83625" transform="rotate(-0 344.304492 265.83625)">Untrained Baseline Anchor</text>
   </g>
  </g>
 </g>
 <defs>
  <clipPath id="p6a8b51799f">
   <rect x="40.789062" y="27.219687" width="488.57" height="170.842541"/>
  </clipPath>
 </defs>
</svg>
